# xmcd
#
# Track frame offsets:
#	150
#	14057
#	27918
#	42696
#	57744
#	75655
#	90274
#	103811
#	117959
#	129533
#	144974
#	161524
#
# Disc length: 2353 seconds
#
# Revision: 0
# Processed by: cddbd v1.5.2PL0 Copyright (c) Steve Scherf et al.
# Submitted via: EasyCDDAExtractor 10.0.5.1
#
DISCID=a1092f0c
DTITLE=Joseph Mewes - Classically Standard
DYEAR=2007
DGENRE=Easy Listening
TTITLE0=Kiss To Build A Dream On
TTITLE1=Stardust
TTITLE2=You Don't Know Me
TTITLE3=Minor Swing
TTITLE4=Someone To Watch Over Me
TTITLE5=Moonlight Serenade
TTITLE6=Misty
TTITLE7=Nuages
TTITLE8=What A Difference A Day Makes
TTITLE9=The Very Thought Of You
TTITLE10=L'Hymne A L'Amour
TTITLE11=Le Vie En Rose
EXTD=
EXTT0=
EXTT1=
EXTT2=
EXTT3=
EXTT4=
EXTT5=
EXTT6=
EXTT7=
EXTT8=
EXTT9=
EXTT10=
EXTT11=
PLAYORDER=
